<?xml version="1.0" encoding="UTF-8"?>
<svg width="600" height="320" viewBox="0 0 600 320" fill="none" xmlns="http://www.w3.org/2000/svg">
  <style>
    .card { fill: #0d1117; stroke: #30363d; stroke-width: 1; rx: 16; }
    .title { font: 700 20px 'Segoe UI', Ubuntu, Sans-Serif; fill: #f0f6fc; }
    .stat-line { font: 400 16px 'Segoe UI', Ubuntu, Sans-Serif; fill: #c9d1d9; }
    .lang-name { font: 600 14px 'Segoe UI', Ubuntu, Sans-Serif; fill: #58a6ff; }
    .lang-percent { font: 400 14px 'Segoe UI', Ubuntu, Sans-Serif; fill: #8b949e; }
    .bar { fill: #2ea043; }
  </style>
  <rect class="card" x="0.5" y="0.5" width="599" height="319" rx="16" />
  <text x="24" y="44" class="title">GitHub Snapshot · 6/8/2026</text>
  <text x="24" y="74" class="stat-line">Followers: 36</text>
<text x="24" y="98" class="stat-line">Following: 90</text>
<text x="24" y="122" class="stat-line">Repos tracked: 220</text>
<text x="24" y="146" class="stat-line">Stars earned: 67</text>
  <text x="24" y="194" class="stat-line">Top languages</text>
  
      <text x="24" y="218" class="lang-name">C++</text>
      <rect x="134" y="204" width="131.016" height="16" rx="4" class="bar"></rect>
      <text x="273.01599999999996" y="218" class="lang-percent">31.8%</text>
    

      <text x="24" y="246" class="lang-name">Python</text>
      <rect x="134" y="232" width="125.24799999999999" height="16" rx="4" class="bar"></rect>
      <text x="267.248" y="246" class="lang-percent">30.4%</text>
    

      <text x="24" y="274" class="lang-name">HTML</text>
      <rect x="134" y="260" width="103" height="16" rx="4" class="bar"></rect>
      <text x="245" y="274" class="lang-percent">25%</text>
    

      <text x="24" y="302" class="lang-name">IGOR Pro</text>
      <rect x="134" y="288" width="20.188000000000002" height="16" rx="4" class="bar"></rect>
      <text x="162.188" y="302" class="lang-percent">4.9%</text>
    

      <text x="24" y="330" class="lang-name">Rust</text>
      <rect x="134" y="316" width="8.24" height="16" rx="4" class="bar"></rect>
      <text x="150.24" y="330" class="lang-percent">2%</text>
    

      <text x="24" y="358" class="lang-name">TypeScript</text>
      <rect x="134" y="344" width="7.0040000000000004" height="16" rx="4" class="bar"></rect>
      <text x="149.004" y="358" class="lang-percent">1.7%</text>
    
</svg>