<?xml version="1.0" encoding="UTF-8"?>
<svg width="600" height="320" viewBox="0 0 600 320" fill="none" xmlns="http://www.w3.org/2000/svg">
  <style>
    .card { fill: #0d1117; stroke: #30363d; stroke-width: 1; rx: 16; }
    .title { font: 700 20px 'Segoe UI', Ubuntu, Sans-Serif; fill: #f0f6fc; }
    .stat-line { font: 400 16px 'Segoe UI', Ubuntu, Sans-Serif; fill: #c9d1d9; }
    .lang-name { font: 600 14px 'Segoe UI', Ubuntu, Sans-Serif; fill: #58a6ff; }
    .lang-percent { font: 400 14px 'Segoe UI', Ubuntu, Sans-Serif; fill: #8b949e; }
    .bar { fill: #2ea043; }
  </style>
  <rect class="card" x="0.5" y="0.5" width="599" height="319" rx="16" />
  <text x="24" y="44" class="title">GitHub Snapshot · 3/12/2026</text>
  <text x="24" y="74" class="stat-line">Followers: 34</text>
<text x="24" y="98" class="stat-line">Following: 90</text>
<text x="24" y="122" class="stat-line">Repos tracked: 217</text>
<text x="24" y="146" class="stat-line">Stars earned: 61</text>
  <text x="24" y="194" class="stat-line">Top languages</text>
  
      <text x="24" y="218" class="lang-name">C++</text>
      <rect x="134" y="204" width="127.72" height="16" rx="4" class="bar"></rect>
      <text x="269.72" y="218" class="lang-percent">31%</text>
    

      <text x="24" y="246" class="lang-name">Python</text>
      <rect x="134" y="232" width="116.18399999999998" height="16" rx="4" class="bar"></rect>
      <text x="258.18399999999997" y="246" class="lang-percent">28.2%</text>
    

      <text x="24" y="274" class="lang-name">HTML</text>
      <rect x="134" y="260" width="100.52799999999999" height="16" rx="4" class="bar"></rect>
      <text x="242.528" y="274" class="lang-percent">24.4%</text>
    

      <text x="24" y="302" class="lang-name">IGOR Pro</text>
      <rect x="134" y="288" width="19.776" height="16" rx="4" class="bar"></rect>
      <text x="161.776" y="302" class="lang-percent">4.8%</text>
    

      <text x="24" y="330" class="lang-name">Gnuplot</text>
      <rect x="134" y="316" width="17.715999999999998" height="16" rx="4" class="bar"></rect>
      <text x="159.716" y="330" class="lang-percent">4.3%</text>
    

      <text x="24" y="358" class="lang-name">TypeScript</text>
      <rect x="134" y="344" width="6.5920000000000005" height="16" rx="4" class="bar"></rect>
      <text x="148.592" y="358" class="lang-percent">1.6%</text>
    
</svg>